<?xml version="1.0" encoding="UTF-8"?>
<svg width="24" height="24" xmlns="http://www.w3.org/2000/svg">
    <path d="M19.525 15.977V.49h-2.059v2.906h-.064c-.211-.455-.481-.891-.842-1.307-.36-.412-.767-.777-1.232-1.094-.466-.314-.983-.578-1.559-.77C13.196.08 12.626 0 12.109 0c-.502 0-.987.094-1.464.283-.481.187-.907.458-1.284.811-.377.356-.675.771-.889 1.246-.217.478-.323.991-.323 1.543 0 .591.119 1.111.363 1.545.244.435.56.81.951 1.123.391.313.822.561 1.293.742.47.182.938.277 1.406.283.441 0 .892-.059 1.351-.182.459-.12.882-.303 1.268-.548h.064v5.177c-.209.274-.5.533-.877.77-.377.237-.803.434-1.268.591-.47.157-.952.236-1.445.236-.361 0-.736-.052-1.123-.158-.39-.105-.759-.272-1.104-.5-.346-.227-.653-.516-.914-.858-.262-.341-.49-.736-.683-1.179-.192-.443-.338-.93-.433-1.461-.096-.53-.146-1.169-.146-1.893 0-.709.049-1.331.146-1.862.098-.531.244-1.021.439-1.468.195-.448.423-.852.683-1.215.26-.36.557-.667.891-.913.335-.246.705-.423 1.104-.527.399-.104.77-.158 1.123-.158.474 0 .912.082 1.312.24.399.159.746.383 1.043.673.297.289.535.63.712 1.028.176.398.293.837.347 1.316h2.149c-.065-.688-.22-1.312-.463-1.875-.245-.562-.564-1.042-.961-1.441-.398-.398-.871-.703-1.419-.914-.549-.211-1.158-.316-1.828-.316-.61 0-1.214.097-1.811.291-.597.194-1.131.479-1.606.854-.474.377-.854.837-1.139 1.382-.285.543-.435 1.158-.435 1.848 0 .738.15 1.381.435 1.918.285.536.667.993 1.139 1.37.474.377 1.009.661 1.606.854.597.193 1.201.291 1.811.291.502 0 1.021-.072 1.561-.217.539-.146 1.037-.354 1.494-.626.459-.273.836-.661 1.133-1.165.296-.504.444-1.119.444-1.853h-2.111c-.091.727-.434 1.236-1.027 1.527-.594.292-1.255.437-1.982.437-.456 0-.678-.052-1.061-.158-.383-.106-.743-.271-1.076-.495-.334-.224-.611-.52-.84-.887-.229-.37-.42-.819-.572-1.344-.152-.523-.238-1.126-.238-1.804s.083-1.281.238-1.809c.152-.526.343-.977.572-1.351.229-.374.506-.671.84-.891.333-.221.693-.387 1.076-.492.382-.106.857-.158 1.312-.158.492 0 .92.077 1.284.232.364.152.679.367.949.64.267.274.481.599.642.976.159.377.241.787.241 1.229h2.111c0-.669-.135-1.269-.405-1.795a4.108 4.108 0 0 0-1.103-1.351c-.465-.376-1.009-.664-1.634-.863C13.445.097 12.787 0 12.099 0c-.672 0-1.303.108-1.894.323-.592.216-1.109.521-1.559.914-.449.394-.802.867-1.058 1.422-.257.555-.385 1.174-.385 1.857 0 .682.128 1.301.385 1.857.256.555.609 1.027 1.058 1.422.45.394.967.7 1.559.914.591.216 1.222.324 1.894.324.547 0 1.057-.081 1.529-.232.471-.152.891-.362 1.262-.632.369-.269.676-.594.914-.976.239-.38.407-.787.503-1.22h.061v2.871h2.059v-7.613h-6.372v1.809h4.315l.021 3.755c-.228.633-.618 1.146-1.173 1.542-.554.397-1.214.595-1.979.595-.506 0-.937-.068-1.29-.204-.354-.137-.657-.346-.909-.632-.251-.286-.44-.642-.567-1.07-.127-.427-.19-.937-.19-1.527V4.667c0-.559.063-1.051.19-1.479.127-.428.317-.786.567-1.071.252-.285.555-.497.909-.636.353-.138.784-.207 1.29-.207.359 0 .695.058 1.006.173.312.116.586.274.824.476.236.201.424.443.563.725.138.283.206.584.206.908h2.098c-.049-.577-.193-1.069-.432-1.477a3.37 3.37 0 0 0-.905-1.009c-.375-.258-.811-.453-1.312-.582C15.049.085 14.545.018 14.041.018c-.756 0-1.459.127-2.104.383-.644.255-1.199.63-1.661 1.121-.463.493-.823 1.086-1.077 1.782-.256.697-.385 1.479-.385 2.349v5.867c0 .853.129 1.62.385 2.305.254.682.614 1.265 1.077 1.745.462.481 1.016.851 1.661 1.106.645.257 1.348.383 2.104.383.853 0 1.568-.146 2.147-.438.578-.291 1.045-.692 1.402-1.203h.063v1.559h2.059V8.225h-6.208v1.894h4.149v.442z" fill="#ffffff"/>
</svg>