<?xml version="1.0" encoding="UTF-8"?>
<svg version="1.1" xmlns="http://www.w3.org/2000/svg" width="400" height="400">
<path d="M0 0 C132 0 264 0 400 0 C400 132 400 264 400 400 C268 400 136 400 0 400 C0 268 0 136 0 0 Z " fill="#EAE1D6" transform="translate(0,0)"/>
<path d="M0 0 C3.83084349 2.61193874 6.65161815 5.67823629 8.75 9.875 C9.13548076 15.65721136 8.74854084 18.7574903 5.75 23.875 C-0.07900554 30.22163924 -7.30574015 35.34065637 -14.171875 40.515625 C-15.69554687 41.68351562 -15.69554687 41.68351562 -17.25 42.875 C-17.81549561 43.30200195 -18.38099121 43.72900391 -18.96362305 44.16894531 C-20.44990172 45.33449954 -21.85672313 46.59972727 -23.25 47.875 C-23.72256546 52.78968077 -22.05619668 55.35143217 -19.0625 59 C-18.43601562 59.7528125 -17.80953125 60.505625 -17.1640625 61.28125 C-6.96260744 75.10526257 -5.11819198 92.43256847 -7.57080078 109.04833984 C-8.38504244 112.83659174 -9.69224098 116.33695256 -11.25 119.875 C-11.62382812 120.76058594 -11.99765625 121.64617187 -12.3828125 122.55859375 C-15.18867524 128.66273884 -18.86963873 133.80445576 -23.25 138.875 C-23.82234375 139.55433594 -24.3946875 140.23367187 -24.984375 140.93359375 C-35.54846161 152.51345791 -51.48854934 159.03579106 -66.91796875 160.13671875 C-75.4728291 160.46250774 -82.78876269 159.32011635 -90.9453125 156.75 C-94.28735396 155.86510959 -96.81798332 155.46527891 -100.25 155.875 C-102.1820847 157.18593006 -102.1820847 157.18593006 -103.625 159.1875 C-104.2025 159.91324219 -104.78 160.63898438 -105.375 161.38671875 C-106.303125 162.61841797 -106.303125 162.61841797 -107.25 163.875 C-107.971875 164.78894531 -108.69375 165.70289063 -109.4375 166.64453125 C-114.4244609 173.07187364 -114.4244609 173.07187364 -116.25 180.875 C-115.28142765 182.06328999 -115.28142765 182.06328999 -113.52471924 181.98852539 C-112.77309509 181.98328857 -112.02147095 181.97805176 -111.24707031 181.97265625 C-110.39397278 181.96935303 -109.54087524 181.9660498 -108.66192627 181.96264648 C-107.72677185 181.95434814 -106.79161743 181.9460498 -105.828125 181.9375 C-104.85832703 181.93371338 -103.88852905 181.92992676 -102.88934326 181.92602539 C-98.73704747 181.90975718 -94.58484994 181.88225306 -90.43261719 181.85449219 C-79.53703172 181.78786325 -68.66065621 181.79431126 -57.7734375 182.2734375 C-56.52001556 182.32443604 -56.52001556 182.32443604 -55.24127197 182.37646484 C-41.82376244 183.05126874 -28.91559627 186.15198353 -19.1640625 195.9765625 C-13.28649071 202.99492881 -9.44933004 210.94197304 -9.859375 220.2265625 C-11.60423762 232.05673106 -16.75451509 240.75338632 -26.25 247.875 C-34.09594054 252.78631549 -42.21406178 254.17775316 -51.32470703 254.1496582 C-52.19405884 254.15476913 -53.06341064 254.15988007 -53.95910645 254.16514587 C-56.80874675 254.17895175 -59.6581429 254.17809258 -62.5078125 254.17578125 C-64.49982797 254.17967179 -66.49184262 254.1840072 -68.4838562 254.18876648 C-72.64795631 254.19620831 -76.81197159 254.19595123 -80.97607422 254.19067383 C-86.30687744 254.18486752 -91.63733454 254.20184815 -96.96808052 254.2250185 C-101.07736229 254.23975819 -105.18656059 254.24062746 -109.29586411 254.23750877 C-111.2614193 254.23802139 -113.22697924 254.24324794 -115.1925087 254.25332069 C-117.93992866 254.26567874 -120.68667263 254.25889834 -123.43408203 254.24731445 C-124.24150848 254.25495819 -125.04893494 254.26260193 -125.88082886 254.27047729 C-131.82999353 254.2151305 -135.67823143 252.63463112 -140.625 249.25 C-142.76110243 246.12800413 -142.87294242 243.85883521 -142.70703125 240.12890625 C-141.8244788 235.77648946 -139.20665024 233.19137339 -135.54296875 230.7265625 C-132.25702249 229.50622811 -129.30550409 229.64941968 -125.8125 229.6875 C-124.51441406 229.69394531 -123.21632812 229.70039063 -121.87890625 229.70703125 C-118.25 229.875 -118.25 229.875 -115.89331055 230.35131836 C-104.22848384 232.66230508 -91.78671973 232.09149421 -79.94433594 232.11523438 C-76.9912592 232.12502899 -74.03885464 232.15620045 -71.0859375 232.1875 C-69.17708738 232.19402468 -67.26823239 232.19927725 -65.359375 232.203125 C-64.49246033 232.2154718 -63.62554565 232.2278186 -62.73236084 232.24053955 C-55.14465309 232.21326737 -47.90443055 230.64595755 -41.25 226.875 C-38.37137749 222.61207177 -38.61568372 217.82106111 -39.25 212.875 C-41.33313964 208.95869747 -43.87885639 207.05293941 -48.03962708 205.49319458 C-57.34527391 202.89060188 -66.82006216 202.6179731 -76.41770363 202.78580093 C-78.51707879 202.82132869 -80.61613534 202.84140474 -82.71574402 202.8576355 C-88.67400059 202.90592815 -94.6318169 202.97786206 -100.58959961 203.06689453 C-104.26148911 203.12071041 -107.93314144 203.15461776 -111.6053524 203.17663193 C-112.99158287 203.18895331 -114.37776954 203.20883892 -115.76377296 203.2367897 C-131.3828764 203.54945049 -131.3828764 203.54945049 -137.79450989 197.39163208 C-142.45314643 192.11047297 -142.78637232 187.28078354 -142.7109375 180.4765625 C-141.38105361 170.08543583 -133.78928181 161.57428718 -127.38671875 153.65234375 C-124.06741553 149.33785638 -122.70538432 146.57557548 -122.85791016 140.93994141 C-123.57066784 137.18620264 -125.9339918 134.828231 -128.4375 132.0625 C-133.25928646 126.3672405 -136.60932187 120.90537683 -139.25 113.875 C-139.59933594 113.09253906 -139.94867188 112.31007813 -140.30859375 111.50390625 C-145.02457276 98.33438809 -143.63433108 79.57367179 -137.9609375 67.0234375 C-128.99388791 49.61681182 -114.59627825 37.24950765 -96.3125 30.375 C-82.01072262 26.38462755 -65.41864591 27.60572445 -51.875 33.4375 C-50.85664063 33.87191406 -49.83828125 34.30632812 -48.7890625 34.75390625 C-47.26129238 35.42847552 -45.74375372 36.12812314 -44.25 36.875 C-41.9170134 36.91522391 -39.58293334 36.91820247 -37.25 36.875 C-35.91127338 34.54462403 -34.57831552 32.21130895 -33.25 29.875 C-32.84209229 29.16037598 -32.43418457 28.44575195 -32.01391602 27.70947266 C-29.53890188 23.32340807 -27.2822722 18.89522971 -25.16235352 14.328125 C-19.75418846 2.79937446 -13.36934201 -4.62784916 0 0 Z " fill="#201B17" transform="translate(276.25,64.125)"/>
<path d="M0 0 C8.31042452 5.84587169 13.80998188 13.00049004 16 23 C17.96100006 43.70220317 12.44638217 61.33570829 -0.3125 77.875 C-4.63295662 82.91553272 -9.25853452 86.68543687 -15 90 C-15.598125 90.35964844 -16.19625 90.71929687 -16.8125 91.08984375 C-24.30437845 94.71872238 -35.00738392 94.08929805 -43.0078125 92.34375 C-54.59452497 88.13040001 -61.23106287 80.03534932 -66.875 69.5 C-71.19131607 56.65382121 -67.76173851 41.3229687 -62.02685547 29.61865234 C-57.98817168 21.75186472 -53.44542628 15.13355082 -47 9 C-46.01386719 8.01966797 -46.01386719 8.01966797 -45.0078125 7.01953125 C-32.81298529 -4.46515542 -15.15545735 -8.44245447 0 0 Z " fill="#E9E0D5" transform="translate(227,114)"/>
</svg>
