<?xml version="1.0" encoding="UTF-8"?>
<svg width="24" height="24" xmlns="http://www.w3.org/2000/svg">
    <path d="M7.012 2C3.692 2 1 4.693 1 8.012v7.976C1 19.307 3.693 22 7.012 22h9.976C20.307 22 23 19.307 23 15.988V8.012C23 4.693 20.307 2 16.988 2H7.012zm4.747 4.183c.581-.133 1.19.025 1.729.439.34.26.615.602.802 1.343.17.676.16 1.344.153 1.84l-.002.16v.805l.729-.807c.677-.75 1.542-1.307 2.434-1.366.892-.06 1.923.386 2.561 1.219.647.847.838 1.902.84 2.905v3.896c0 .323-.262.585-.585.585h-2.34a.585.585 0 0 1-.584-.585v-3.536c0-.503-.037-1.061-.302-1.4-.239-.307-.745-.445-1.143-.398-.448.053-.845.307-1.143.633-.303.332-.467.723-.467 1.165v3.536c0 .323-.262.585-.585.585H11.51a.585.585 0 0 1-.585-.585v-3.536c0-.503-.037-1.061-.302-1.4-.239-.307-.745-.445-1.143-.398-.449.053-.845.307-1.143.633-.303.332-.467.723-.467 1.165v3.536c0 .323-.262.585-.585.585H5.146a.585.585 0 0 1-.585-.585v-6.826c0-.323.262-.585.585-.585h2.34c.322 0 .584.262.584.585v.525c.431-.665 1.145-1.244 2.124-1.276.582-.019 1.191.139 1.73.553.339.26.615.602.802 1.343.506-1.066 1.575-1.747 2.715-1.89l.318-.044z" fill="#ffffff"/> fill="#fff"/>
</svg>