<?xml version="1.0" encoding="UTF-8"?>
<svg width="24" height="24" xmlns="http://www.w3.org/2000/svg">
    <path d="M12 0C5.364 0 0 5.364 0 12s5.364 12 12 12 12-5.364 12-12S18.636 0 12 0zm0 2.727c5.116 0 9.273 4.157 9.273 9.273S17.116 21.273 12 21.273 2.727 17.116 2.727 12 6.884 2.727 12 2.727zm4.42 5.933c-.749-.792-1.834-1.215-3.147-1.215-1.69 0-2.96.59-3.79 1.795l1.88 1.371c.467-.703 1.128-1.01 1.91-1.01.396 0 .725.106.987.317.262.211.394.475.394.79 0 .634-.446.95-1.337.95h-.857v2.038h.813c1.02 0 1.53.352 1.53 1.055 0 .37-.145.662-.438.879-.292.216-.677.325-1.154.325-.879 0-1.607-.359-2.184-1.076l-1.89 1.362c.901 1.28 2.228 1.92 3.983 1.92 1.358 0 2.472-.37 3.34-1.108.87-.739 1.304-1.685 1.304-2.838 0-.766-.28-1.427-.835-1.983.6-.581.901-1.294.901-2.14 0-.475-.14-.91-.41-1.432z" fill="#ffffff"/>
</svg>